<svg width="729" height="240" viewBox="0 0 729 240" fill="none" xmlns="http://www.w3.org/2000/svg">
<g clip-path="url(#clip0_0_3)">
<mask id="path-1-inside-1_0_3" fill="white">
<rect width="729" height="240" rx="13"/>
</mask>
<rect width="729" height="240" rx="13" stroke="white" stroke-width="30" mask="url(#path-1-inside-1_0_3)"/>
<path shape-rendering="geometricPrecision" d="M61.1143 187V48.1309H106.109C123.16 48.1309 134.275 48.8255 139.453 50.2148C147.41 52.2988 154.073 56.8457 159.44 63.8555C164.808 70.8021 167.492 79.8011 167.492 90.8525C167.492 99.3779 165.945 106.546 162.851 112.355C159.756 118.165 155.809 122.744 151.01 126.091C146.273 129.375 141.442 131.553 136.517 132.627C129.823 133.953 120.129 134.616 107.436 134.616H89.1533V187H61.1143ZM89.1533 71.623V111.029H104.499C115.55 111.029 122.939 110.303 126.665 108.851C130.391 107.398 133.296 105.125 135.38 102.03C137.527 98.9359 138.601 95.3363 138.601 91.2314C138.601 86.1794 137.117 82.0114 134.148 78.7275C131.18 75.4437 127.423 73.3913 122.876 72.5703C119.529 71.9388 112.803 71.623 102.699 71.623H89.1533ZM176.121 72.7598V48.1309H202.739V72.7598H176.121ZM176.121 187V86.4004H202.739V187H176.121ZM307.421 187H280.803V135.658C280.803 124.796 280.235 117.786 279.098 114.629C277.961 111.408 276.098 108.914 273.509 107.146C270.983 105.377 267.92 104.493 264.321 104.493C259.711 104.493 255.574 105.756 251.911 108.282C248.249 110.808 245.723 114.155 244.333 118.323C243.007 122.491 242.344 130.196 242.344 141.437V187H215.726V86.4004H240.45V101.178C249.228 89.8105 260.279 84.127 273.604 84.127C279.477 84.127 284.845 85.2005 289.707 87.3477C294.57 89.4316 298.233 92.1156 300.696 95.3994C303.222 98.6833 304.958 102.409 305.906 106.577C306.916 110.745 307.421 116.713 307.421 124.48V187ZM378.57 154.982L405.093 159.435C401.683 169.16 396.284 176.58 388.895 181.695C381.57 186.747 372.381 189.273 361.33 189.273C343.837 189.273 330.891 183.558 322.492 172.128C315.861 162.971 312.545 151.414 312.545 137.458C312.545 120.786 316.903 107.745 325.618 98.3359C334.333 88.8633 345.352 84.127 358.677 84.127C373.644 84.127 385.453 89.0843 394.105 98.999C402.757 108.851 406.893 123.975 406.514 144.373H339.827C340.016 152.267 342.163 158.424 346.268 162.845C350.373 167.202 355.488 169.381 361.614 169.381C365.782 169.381 369.287 168.244 372.128 165.971C374.97 163.697 377.117 160.035 378.57 154.982ZM380.085 128.08C379.896 120.376 377.907 114.534 374.118 110.556C370.329 106.514 365.719 104.493 360.288 104.493C354.478 104.493 349.678 106.609 345.889 110.84C342.1 115.071 340.237 120.818 340.3 128.08H380.085ZM414.101 187V48.1309H440.719V187H414.101ZM453.895 187V48.1309H480.514V187H453.895ZM513.582 117.092L489.427 112.734C492.142 103.009 496.816 95.8099 503.446 91.1367C510.077 86.4635 519.929 84.127 533.001 84.127C544.873 84.127 553.715 85.5479 559.525 88.3896C565.334 91.1683 569.408 94.7363 571.744 99.0938C574.144 103.388 575.344 111.313 575.344 122.87L575.06 153.94C575.06 162.782 575.47 169.318 576.291 173.549C577.175 177.717 578.786 182.201 581.122 187H554.788C554.094 185.232 553.241 182.611 552.231 179.138C551.789 177.559 551.473 176.517 551.283 176.012C546.736 180.432 541.874 183.748 536.695 185.958C531.517 188.168 525.991 189.273 520.118 189.273C509.761 189.273 501.583 186.463 495.584 180.843C489.648 175.222 486.68 168.118 486.68 159.529C486.68 153.846 488.038 148.794 490.753 144.373C493.469 139.889 497.258 136.479 502.12 134.143C507.046 131.743 514.119 129.659 523.339 127.891C535.78 125.554 544.4 123.375 549.199 121.354V118.702C549.199 113.587 547.936 109.956 545.41 107.809C542.884 105.598 538.116 104.493 531.107 104.493C526.37 104.493 522.676 105.44 520.024 107.335C517.371 109.166 515.224 112.419 513.582 117.092ZM549.199 138.689C545.789 139.826 540.39 141.184 533.001 142.763C525.612 144.341 520.781 145.889 518.508 147.404C515.035 149.867 513.298 152.993 513.298 156.782C513.298 160.508 514.687 163.729 517.466 166.444C520.245 169.16 523.781 170.518 528.075 170.518C532.875 170.518 537.453 168.939 541.811 165.781C545.031 163.382 547.147 160.445 548.157 156.972C548.852 154.698 549.199 150.372 549.199 143.994V138.689ZM578.1 158.298L604.813 154.225C605.949 159.403 608.254 163.35 611.728 166.065C615.201 168.718 620.064 170.044 626.316 170.044C633.199 170.044 638.378 168.781 641.851 166.255C644.187 164.487 645.356 162.118 645.356 159.15C645.356 157.13 644.724 155.456 643.461 154.13C642.135 152.867 639.167 151.699 634.557 150.625C613.086 145.889 599.476 141.563 593.73 137.647C585.773 132.216 581.794 124.67 581.794 115.008C581.794 106.293 585.236 98.9674 592.119 93.0312C599.003 87.0951 609.675 84.127 624.137 84.127C637.904 84.127 648.134 86.3688 654.828 90.8525C661.522 95.3363 666.132 101.967 668.658 110.745L643.556 115.387C642.482 111.471 640.43 108.472 637.399 106.388C634.431 104.304 630.168 103.262 624.611 103.262C617.601 103.262 612.58 104.241 609.549 106.198C607.528 107.588 606.518 109.387 606.518 111.598C606.518 113.492 607.402 115.103 609.17 116.429C611.57 118.197 619.843 120.691 633.989 123.912C648.198 127.133 658.112 131.08 663.733 135.753C669.29 140.489 672.069 147.089 672.069 155.551C672.069 164.771 668.216 172.696 660.512 179.327C652.808 185.958 641.409 189.273 626.316 189.273C612.612 189.273 601.75 186.495 593.73 180.938C585.773 175.38 580.563 167.834 578.1 158.298Z" fill="white"/>
</g>
<defs>
<clipPath id="clip0_0_3">
<rect width="729" height="240" fill="white"/>
</clipPath>
</defs>
</svg>
